# xmcd CD database file
#
# Track frame offsets:
#	183
#	13145
#	26945
#	42770
#	57623
#	72603
#	86260
#	102008
#	116365
#	131108
#	145413
#	156775
#	172895
#	187505
#	201610
#	214508
#	228988
#	243753
#	257040
#	272888
#	287648
#	302135
#
# Disc length: 4217 seconds
#
# Revision: 0
# Processed by: cddbd v1.5.2PL0 Copyright (c) Steve Scherf et al.
# Submitted via: CDex 1.70beta1
#
DISCID=3d107716
DTITLE=Joe Loss - 50 Great Years
DYEAR=1900
DGENRE=British Dance Bands
TTITLE0=I'll Be Faithful (Feat. Jimmy Messene) (Joe Loss Featuring Jimmy Messene)
TTITLE1=Red Sails In The Sunset (Feat. Vera Lynn) (Joe Loss Featuring Vera Lynn)
TTITLE2=Begin The Beguine (Feat. Chick Henderson) (Joe Loss Featuring Chick Henderson)
TTITLE3=Goodnight Children Everywhere (Feat. Chick Henderson and Shirley Lenner) (Joe Loss Featuring Chick Henderson and Shirley Lenner)
TTITLE4=The Thrill Of A New Romance (Feat. Cyril Grantham) (Joe Loss Featuring Cyril Grantham)
TTITLE5=My Prayer (Feat. Chick Henderson) (Joe Loss Featuring Chick Henderson)
TTITLE6=The Breeze And I (Feat. Cyril Grantham) (Joe Loss Featuring Cyril Grantham)
TTITLE7=St Mary's In The Twilight (Feat. Pat McCormack) (Joe Loss Featuring Pat McCormack)
TTITLE8=Stage Coach
TTITLE9=Tell Me Marianne (Feat. Don Rivers) (Joe Loss Featuring Don Rivers)
TTITLE10=A Gal In Calico (Joe Loss Featuring Elizabeth Batey)
TTITLE11=Oasis
TTITLE12=No Orchids For My Lady (Feat. Howard Jones) (Joe Loss Featuring Howard Jones)
TTITLE13=Put 'Em In A Box (Feat. Elizabeth Batey) (Joe Loss Featuring Elizabeth Batey)
TTITLE14=Sabre Dance (Gayaneh)
TTITLE15=Ain't Nobody Here But Us Chickens (Feat. Elizabeth Batey) (Joe Loss Featuring Elizabeth Batey)
TTITLE16=When It's Evening (Feat. Howard Jones) (Joe Loss Featuring Howard Jones)
TTITLE17=When You're In Love (Feat. Howard Jones and Don Rivers) (Joe Loss Featuring Howard Jones and Don Rivers)
TTITLE18=Voodoo Moon (Enlloro) (Feat. Bill McGuffie at the Piano) (Joe Loss Featuring Bill McGuffie at the Piano)
TTITLE19=Flying Saucer (Feat. The Loss Chords) (Joe Loss Featuring The Loss Chords)
TTITLE20=With These Hands
TTITLE21=I Wish I Knew (Diamond Horseshoe) (Joe Loss Featuring Harry Kaye)
EXTD=
EXTT0=
EXTT1=
EXTT2=
EXTT3=
EXTT4=
EXTT5=
EXTT6=
EXTT7=
EXTT8=
EXTT9=
EXTT10=
EXTT11=
EXTT12=
EXTT13=
EXTT14=
EXTT15=
EXTT16=
EXTT17=
EXTT18=
EXTT19=
EXTT20=
EXTT21=
PLAYORDER=
